<?xml version="1.0" encoding="utf-8" standalone="no"?>
<!DOCTYPE svg PUBLIC "-//W3C//DTD SVG 1.1//EN"
  "http://www.w3.org/Graphics/SVG/1.1/DTD/svg11.dtd">
<!-- Created with matplotlib (https://matplotlib.org/) -->
<svg height="345.6pt" version="1.1" viewBox="0 0 460.8 345.6" width="460.8pt" xmlns="http://www.w3.org/2000/svg" xmlns:xlink="http://www.w3.org/1999/xlink">
 <defs>
  <style type="text/css">
*{stroke-linecap:butt;stroke-linejoin:round;}
  </style>
 </defs>
 <g id="figure_1">
  <g id="patch_1">
   <path d="M 0 345.6 
L 460.8 345.6 
L 460.8 0 
L 0 0 
z
" style="fill:#ffffff;"/>
  </g>
  <g id="axes_1">
   <g id="patch_2">
    <path d="M 52.94 303.64 
L 443.7 303.64 
L 443.7 25.44 
L 52.94 25.44 
z
" style="fill:#ffffff;"/>
   </g>
   <g id="PathCollection_1">
    <defs>
     <path d="M 0 0.25 
C 0.066301 0.25 0.129895 0.223658 0.176777 0.176777 
C 0.223658 0.129895 0.25 0.066301 0.25 0 
C 0.25 -0.066301 0.223658 -0.129895 0.176777 -0.176777 
C 0.129895 -0.223658 0.066301 -0.25 0 -0.25 
C -0.066301 -0.25 -0.129895 -0.223658 -0.176777 -0.176777 
C -0.223658 -0.129895 -0.25 -0.066301 -0.25 0 
C -0.25 0.066301 -0.223658 0.129895 -0.176777 0.176777 
C -0.129895 0.223658 -0.066301 0.25 0 0.25 
z
" id="mea8b27dff5" style="stroke:#1f77b4;"/>
    </defs>
    <g clip-path="url(#p4d12efdb9d)">
     <use style="fill:#1f77b4;stroke:#1f77b4;" x="215.730168" xlink:href="#mea8b27dff5" y="142.822345"/>
     <use style="fill:#1f77b4;stroke:#1f77b4;" x="188.797568" xlink:href="#mea8b27dff5" y="136.499414"/>
     <use style="fill:#1f77b4;stroke:#1f77b4;" x="209.647417" xlink:href="#mea8b27dff5" y="145.354739"/>
     <use style="fill:#1f77b4;stroke:#1f77b4;" x="212.902665" xlink:href="#mea8b27dff5" y="140.027642"/>
     <use style="fill:#1f77b4;stroke:#1f77b4;" x="215.196097" xlink:href="#mea8b27dff5" y="141.614124"/>
     <use style="fill:#1f77b4;stroke:#1f77b4;" x="221.847659" xlink:href="#mea8b27dff5" y="141.361175"/>
     <use style="fill:#1f77b4;stroke:#1f77b4;" x="208.491269" xlink:href="#mea8b27dff5" y="141.095592"/>
     <use style="fill:#1f77b4;stroke:#1f77b4;" x="211.57774" xlink:href="#mea8b27dff5" y="150.578927"/>
     <use style="fill:#1f77b4;stroke:#1f77b4;" x="196.81836" xlink:href="#mea8b27dff5" y="124.164143"/>
     <use style="fill:#1f77b4;stroke:#1f77b4;" x="232.217897" xlink:href="#mea8b27dff5" y="130.836182"/>
     <use style="fill:#1f77b4;stroke:#1f77b4;" x="212.30958" xlink:href="#mea8b27dff5" y="128.81246"/>
     <use style="fill:#1f77b4;stroke:#1f77b4;" x="217.114197" xlink:href="#mea8b27dff5" y="143.152553"/>
     <use style="fill:#1f77b4;stroke:#1f77b4;" x="196.308691" xlink:href="#mea8b27dff5" y="138.173863"/>
     <use style="fill:#1f77b4;stroke:#1f77b4;" x="187.937139" xlink:href="#mea8b27dff5" y="137.694094"/>
     <use style="fill:#1f77b4;stroke:#1f77b4;" x="202.86" xlink:href="#mea8b27dff5" y="129.088449"/>
     <use style="fill:#1f77b4;stroke:#1f77b4;" x="218.811467" xlink:href="#mea8b27dff5" y="144.489248"/>
     <use style="fill:#1f77b4;stroke:#1f77b4;" x="217.126234" xlink:href="#mea8b27dff5" y="137.795682"/>
     <use style="fill:#1f77b4;stroke:#1f77b4;" x="189.088104" xlink:href="#mea8b27dff5" y="137.870882"/>
     <use style="fill:#1f77b4;stroke:#1f77b4;" x="203.307509" xlink:href="#mea8b27dff5" y="136.519472"/>
     <use style="fill:#1f77b4;stroke:#1f77b4;" x="208.910881" xlink:href="#mea8b27dff5" y="147.324979"/>
     <use style="fill:#1f77b4;stroke:#1f77b4;" x="196.486575" xlink:href="#mea8b27dff5" y="122.614518"/>
     <use style="fill:#1f77b4;stroke:#1f77b4;" x="193.257168" xlink:href="#mea8b27dff5" y="133.063849"/>
     <use style="fill:#1f77b4;stroke:#1f77b4;" x="211.205566" xlink:href="#mea8b27dff5" y="128.050229"/>
     <use style="fill:#1f77b4;stroke:#1f77b4;" x="216.916219" xlink:href="#mea8b27dff5" y="139.435693"/>
     <use style="fill:#1f77b4;stroke:#1f77b4;" x="194.778819" xlink:href="#mea8b27dff5" y="131.645729"/>
     <use style="fill:#1f77b4;stroke:#1f77b4;" x="222.619306" xlink:href="#mea8b27dff5" y="139.317459"/>
     <use style="fill:#1f77b4;stroke:#1f77b4;" x="213.819418" xlink:href="#mea8b27dff5" y="135.207222"/>
     <use style="fill:#1f77b4;stroke:#1f77b4;" x="212.852378" xlink:href="#mea8b27dff5" y="136.3843"/>
     <use style="fill:#1f77b4;stroke:#1f77b4;" x="234.32562" xlink:href="#mea8b27dff5" y="142.072912"/>
     <use style="fill:#1f77b4;stroke:#1f77b4;" x="196.288157" xlink:href="#mea8b27dff5" y="139.470561"/>
     <use style="fill:#1f77b4;stroke:#1f77b4;" x="219.624636" xlink:href="#mea8b27dff5" y="141.481139"/>
     <use style="fill:#1f77b4;stroke:#1f77b4;" x="216.543434" xlink:href="#mea8b27dff5" y="147.755374"/>
     <use style="fill:#1f77b4;stroke:#1f77b4;" x="211.931936" xlink:href="#mea8b27dff5" y="131.059612"/>
     <use style="fill:#1f77b4;stroke:#1f77b4;" x="209.598293" xlink:href="#mea8b27dff5" y="137.358224"/>
     <use style="fill:#1f77b4;stroke:#1f77b4;" x="228.55482" xlink:href="#mea8b27dff5" y="141.057807"/>
     <use style="fill:#1f77b4;stroke:#1f77b4;" x="211.298179" xlink:href="#mea8b27dff5" y="139.484436"/>
     <use style="fill:#1f77b4;stroke:#1f77b4;" x="234.64504" xlink:href="#mea8b27dff5" y="132.505463"/>
     <use style="fill:#1f77b4;stroke:#1f77b4;" x="198.147116" xlink:href="#mea8b27dff5" y="142.619222"/>
     <use style="fill:#1f77b4;stroke:#1f77b4;" x="204.206151" xlink:href="#mea8b27dff5" y="140.876965"/>
     <use style="fill:#1f77b4;stroke:#1f77b4;" x="230.078871" xlink:href="#mea8b27dff5" y="136.568533"/>
     <use style="fill:#1f77b4;stroke:#1f77b4;" x="204.892893" xlink:href="#mea8b27dff5" y="113.998276"/>
     <use style="fill:#1f77b4;stroke:#1f77b4;" x="208.931586" xlink:href="#mea8b27dff5" y="144.418468"/>
     <use style="fill:#1f77b4;stroke:#1f77b4;" x="212.742392" xlink:href="#mea8b27dff5" y="153.554112"/>
     <use style="fill:#1f77b4;stroke:#1f77b4;" x="210.20782" xlink:href="#mea8b27dff5" y="134.398486"/>
     <use style="fill:#1f77b4;stroke:#1f77b4;" x="212.501543" xlink:href="#mea8b27dff5" y="139.560358"/>
     <use style="fill:#1f77b4;stroke:#1f77b4;" x="210.209288" xlink:href="#mea8b27dff5" y="137.986165"/>
     <use style="fill:#1f77b4;stroke:#1f77b4;" x="207.437795" xlink:href="#mea8b27dff5" y="126.377664"/>
     <use style="fill:#1f77b4;stroke:#1f77b4;" x="216.773662" xlink:href="#mea8b27dff5" y="131.975693"/>
     <use style="fill:#1f77b4;stroke:#1f77b4;" x="208.619835" xlink:href="#mea8b27dff5" y="134.070656"/>
     <use style="fill:#1f77b4;stroke:#1f77b4;" x="225.208614" xlink:href="#mea8b27dff5" y="137.566489"/>
     <use style="fill:#1f77b4;stroke:#1f77b4;" x="210.368063" xlink:href="#mea8b27dff5" y="140.892687"/>
     <use style="fill:#1f77b4;stroke:#1f77b4;" x="205.615424" xlink:href="#mea8b27dff5" y="155.998672"/>
     <use style="fill:#1f77b4;stroke:#1f77b4;" x="204.017057" xlink:href="#mea8b27dff5" y="143.04838"/>
     <use style="fill:#1f77b4;stroke:#1f77b4;" x="201.69256" xlink:href="#mea8b27dff5" y="132.089342"/>
     <use style="fill:#1f77b4;stroke:#1f77b4;" x="208.236087" xlink:href="#mea8b27dff5" y="143.096641"/>
     <use style="fill:#1f77b4;stroke:#1f77b4;" x="206.480966" xlink:href="#mea8b27dff5" y="129.419383"/>
     <use style="fill:#1f77b4;stroke:#1f77b4;" x="222.317029" xlink:href="#mea8b27dff5" y="125.01606"/>
     <use style="fill:#1f77b4;stroke:#1f77b4;" x="202.444114" xlink:href="#mea8b27dff5" y="127.117625"/>
     <use style="fill:#1f77b4;stroke:#1f77b4;" x="208.551594" xlink:href="#mea8b27dff5" y="136.842627"/>
     <use style="fill:#1f77b4;stroke:#1f77b4;" x="219.221867" xlink:href="#mea8b27dff5" y="129.56297"/>
     <use style="fill:#1f77b4;stroke:#1f77b4;" x="192.34312" xlink:href="#mea8b27dff5" y="147.192429"/>
     <use style="fill:#1f77b4;stroke:#1f77b4;" x="189.978458" xlink:href="#mea8b27dff5" y="125.955154"/>
     <use style="fill:#1f77b4;stroke:#1f77b4;" x="199.894866" xlink:href="#mea8b27dff5" y="143.844375"/>
     <use style="fill:#1f77b4;stroke:#1f77b4;" x="215.148852" xlink:href="#mea8b27dff5" y="145.93147"/>
     <use style="fill:#1f77b4;stroke:#1f77b4;" x="216.719135" xlink:href="#mea8b27dff5" y="145.707854"/>
     <use style="fill:#1f77b4;stroke:#1f77b4;" x="200.179547" xlink:href="#mea8b27dff5" y="131.772734"/>
     <use style="fill:#1f77b4;stroke:#1f77b4;" x="221.094666" xlink:href="#mea8b27dff5" y="126.532855"/>
     <use style="fill:#1f77b4;stroke:#1f77b4;" x="219.447355" xlink:href="#mea8b27dff5" y="136.32598"/>
     <use style="fill:#1f77b4;stroke:#1f77b4;" x="231.473334" xlink:href="#mea8b27dff5" y="137.510721"/>
     <use style="fill:#1f77b4;stroke:#1f77b4;" x="193.404718" xlink:href="#mea8b27dff5" y="136.836345"/>
     <use style="fill:#1f77b4;stroke:#1f77b4;" x="216.514993" xlink:href="#mea8b27dff5" y="130.640042"/>
     <use style="fill:#1f77b4;stroke:#1f77b4;" x="203.59175" xlink:href="#mea8b27dff5" y="126.001313"/>
     <use style="fill:#1f77b4;stroke:#1f77b4;" x="193.696859" xlink:href="#mea8b27dff5" y="132.753593"/>
     <use style="fill:#1f77b4;stroke:#1f77b4;" x="209.574428" xlink:href="#mea8b27dff5" y="127.920592"/>
     <use style="fill:#1f77b4;stroke:#1f77b4;" x="227.556388" xlink:href="#mea8b27dff5" y="136.463905"/>
     <use style="fill:#1f77b4;stroke:#1f77b4;" x="213.218805" xlink:href="#mea8b27dff5" y="130.44698"/>
     <use style="fill:#1f77b4;stroke:#1f77b4;" x="211.334618" xlink:href="#mea8b27dff5" y="129.595641"/>
     <use style="fill:#1f77b4;stroke:#1f77b4;" x="200.179085" xlink:href="#mea8b27dff5" y="125.657012"/>
     <use style="fill:#1f77b4;stroke:#1f77b4;" x="210.050856" xlink:href="#mea8b27dff5" y="139.006429"/>
     <use style="fill:#1f77b4;stroke:#1f77b4;" x="212.381518" xlink:href="#mea8b27dff5" y="122.355833"/>
     <use style="fill:#1f77b4;stroke:#1f77b4;" x="234.680606" xlink:href="#mea8b27dff5" y="122.062016"/>
     <use style="fill:#1f77b4;stroke:#1f77b4;" x="198.364681" xlink:href="#mea8b27dff5" y="134.962832"/>
     <use style="fill:#1f77b4;stroke:#1f77b4;" x="215.130554" xlink:href="#mea8b27dff5" y="129.664537"/>
     <use style="fill:#1f77b4;stroke:#1f77b4;" x="210.321406" xlink:href="#mea8b27dff5" y="135.43538"/>
     <use style="fill:#1f77b4;stroke:#1f77b4;" x="221.520972" xlink:href="#mea8b27dff5" y="133.916499"/>
     <use style="fill:#1f77b4;stroke:#1f77b4;" x="217.208435" xlink:href="#mea8b27dff5" y="131.027753"/>
     <use style="fill:#1f77b4;stroke:#1f77b4;" x="189.022561" xlink:href="#mea8b27dff5" y="141.381334"/>
     <use style="fill:#1f77b4;stroke:#1f77b4;" x="210.145951" xlink:href="#mea8b27dff5" y="135.677445"/>
     <use style="fill:#1f77b4;stroke:#1f77b4;" x="225.610228" xlink:href="#mea8b27dff5" y="125.712239"/>
     <use style="fill:#1f77b4;stroke:#1f77b4;" x="199.898287" xlink:href="#mea8b27dff5" y="134.680943"/>
     <use style="fill:#1f77b4;stroke:#1f77b4;" x="210.982359" xlink:href="#mea8b27dff5" y="132.803345"/>
     <use style="fill:#1f77b4;stroke:#1f77b4;" x="200.366263" xlink:href="#mea8b27dff5" y="140.203379"/>
     <use style="fill:#1f77b4;stroke:#1f77b4;" x="193.572496" xlink:href="#mea8b27dff5" y="137.016157"/>
     <use style="fill:#1f77b4;stroke:#1f77b4;" x="217.400249" xlink:href="#mea8b27dff5" y="144.00516"/>
     <use style="fill:#1f77b4;stroke:#1f77b4;" x="201.158832" xlink:href="#mea8b27dff5" y="145.802905"/>
     <use style="fill:#1f77b4;stroke:#1f77b4;" x="217.055667" xlink:href="#mea8b27dff5" y="134.700905"/>
     <use style="fill:#1f77b4;stroke:#1f77b4;" x="214.465927" xlink:href="#mea8b27dff5" y="139.429347"/>
     <use style="fill:#1f77b4;stroke:#1f77b4;" x="204.53889" xlink:href="#mea8b27dff5" y="139.896827"/>
     <use style="fill:#1f77b4;stroke:#1f77b4;" x="229.041772" xlink:href="#mea8b27dff5" y="135.400417"/>
     <use style="fill:#1f77b4;stroke:#1f77b4;" x="217.764596" xlink:href="#mea8b27dff5" y="144.83538"/>
    </g>
   </g>
   <g id="PathCollection_2">
    <defs>
     <path d="M 0 0.25 
C 0.066301 0.25 0.129895 0.223658 0.176777 0.176777 
C 0.223658 0.129895 0.25 0.066301 0.25 0 
C 0.25 -0.066301 0.223658 -0.129895 0.176777 -0.176777 
C 0.129895 -0.223658 0.066301 -0.25 0 -0.25 
C -0.066301 -0.25 -0.129895 -0.223658 -0.176777 -0.176777 
C -0.223658 -0.129895 -0.25 -0.066301 -0.25 0 
C -0.25 0.066301 -0.223658 0.129895 -0.176777 0.176777 
C -0.129895 0.223658 -0.066301 0.25 0 0.25 
z
" id="md7711d755d" style="stroke:#ff7f0e;"/>
    </defs>
    <g clip-path="url(#p4d12efdb9d)">
     <use style="fill:#ff7f0e;stroke:#ff7f0e;" x="140.802619" xlink:href="#md7711d755d" y="205.780774"/>
     <use style="fill:#ff7f0e;stroke:#ff7f0e;" x="111.436415" xlink:href="#md7711d755d" y="194.027189"/>
     <use style="fill:#ff7f0e;stroke:#ff7f0e;" x="134.850514" xlink:href="#md7711d755d" y="204.414059"/>
     <use style="fill:#ff7f0e;stroke:#ff7f0e;" x="130.30231" xlink:href="#md7711d755d" y="196.712531"/>
     <use style="fill:#ff7f0e;stroke:#ff7f0e;" x="143.845284" xlink:href="#md7711d755d" y="192.451464"/>
     <use style="fill:#ff7f0e;stroke:#ff7f0e;" x="153.318644" xlink:href="#md7711d755d" y="198.327973"/>
     <use style="fill:#ff7f0e;stroke:#ff7f0e;" x="126.69437" xlink:href="#md7711d755d" y="197.85986"/>
     <use style="fill:#ff7f0e;stroke:#ff7f0e;" x="144.993163" xlink:href="#md7711d755d" y="202.816691"/>
     <use style="fill:#ff7f0e;stroke:#ff7f0e;" x="119.282142" xlink:href="#md7711d755d" y="178.710945"/>
     <use style="fill:#ff7f0e;stroke:#ff7f0e;" x="152.602656" xlink:href="#md7711d755d" y="188.683089"/>
     <use style="fill:#ff7f0e;stroke:#ff7f0e;" x="133.527764" xlink:href="#md7711d755d" y="192.706913"/>
     <use style="fill:#ff7f0e;stroke:#ff7f0e;" x="144.384472" xlink:href="#md7711d755d" y="198.739265"/>
     <use style="fill:#ff7f0e;stroke:#ff7f0e;" x="116.308729" xlink:href="#md7711d755d" y="192.610555"/>
     <use style="fill:#ff7f0e;stroke:#ff7f0e;" x="112.367275" xlink:href="#md7711d755d" y="192.979521"/>
     <use style="fill:#ff7f0e;stroke:#ff7f0e;" x="113.663062" xlink:href="#md7711d755d" y="187.879473"/>
     <use style="fill:#ff7f0e;stroke:#ff7f0e;" x="144.95959" xlink:href="#md7711d755d" y="200.576975"/>
     <use style="fill:#ff7f0e;stroke:#ff7f0e;" x="136.946991" xlink:href="#md7711d755d" y="190.651106"/>
     <use style="fill:#ff7f0e;stroke:#ff7f0e;" x="116.782603" xlink:href="#md7711d755d" y="199.993666"/>
     <use style="fill:#ff7f0e;stroke:#ff7f0e;" x="121.140698" xlink:href="#md7711d755d" y="196.654149"/>
     <use style="fill:#ff7f0e;stroke:#ff7f0e;" x="125.143673" xlink:href="#md7711d755d" y="196.673766"/>
     <use style="fill:#ff7f0e;stroke:#ff7f0e;" x="123.198895" xlink:href="#md7711d755d" y="174.529303"/>
     <use style="fill:#ff7f0e;stroke:#ff7f0e;" x="121.330675" xlink:href="#md7711d755d" y="184.737744"/>
     <use style="fill:#ff7f0e;stroke:#ff7f0e;" x="133.107383" xlink:href="#md7711d755d" y="183.15878"/>
     <use style="fill:#ff7f0e;stroke:#ff7f0e;" x="147.544343" xlink:href="#md7711d755d" y="189.773204"/>
     <use style="fill:#ff7f0e;stroke:#ff7f0e;" x="113.236705" xlink:href="#md7711d755d" y="187.881098"/>
     <use style="fill:#ff7f0e;stroke:#ff7f0e;" x="145.078751" xlink:href="#md7711d755d" y="189.390365"/>
     <use style="fill:#ff7f0e;stroke:#ff7f0e;" x="129.347366" xlink:href="#md7711d755d" y="193.451333"/>
     <use style="fill:#ff7f0e;stroke:#ff7f0e;" x="133.738004" xlink:href="#md7711d755d" y="190.208648"/>
     <use style="fill:#ff7f0e;stroke:#ff7f0e;" x="157.526068" xlink:href="#md7711d755d" y="196.732728"/>
     <use style="fill:#ff7f0e;stroke:#ff7f0e;" x="112.527518" xlink:href="#md7711d755d" y="196.453763"/>
     <use style="fill:#ff7f0e;stroke:#ff7f0e;" x="135.064572" xlink:href="#md7711d755d" y="203.750837"/>
     <use style="fill:#ff7f0e;stroke:#ff7f0e;" x="138.614044" xlink:href="#md7711d755d" y="201.933448"/>
     <use style="fill:#ff7f0e;stroke:#ff7f0e;" x="127.085123" xlink:href="#md7711d755d" y="184.825791"/>
     <use style="fill:#ff7f0e;stroke:#ff7f0e;" x="126.864863" xlink:href="#md7711d755d" y="191.388926"/>
     <use style="fill:#ff7f0e;stroke:#ff7f0e;" x="149.104553" xlink:href="#md7711d755d" y="187.874706"/>
     <use style="fill:#ff7f0e;stroke:#ff7f0e;" x="127.811754" xlink:href="#md7711d755d" y="202.75701"/>
     <use style="fill:#ff7f0e;stroke:#ff7f0e;" x="152.789263" xlink:href="#md7711d755d" y="186.564688"/>
     <use style="fill:#ff7f0e;stroke:#ff7f0e;" x="127.64064" xlink:href="#md7711d755d" y="197.230583"/>
     <use style="fill:#ff7f0e;stroke:#ff7f0e;" x="122.741084" xlink:href="#md7711d755d" y="193.288636"/>
     <use style="fill:#ff7f0e;stroke:#ff7f0e;" x="153.347707" xlink:href="#md7711d755d" y="192.443841"/>
     <use style="fill:#ff7f0e;stroke:#ff7f0e;" x="129.588654" xlink:href="#md7711d755d" y="165.262307"/>
     <use style="fill:#ff7f0e;stroke:#ff7f0e;" x="134.022703" xlink:href="#md7711d755d" y="209.725901"/>
     <use style="fill:#ff7f0e;stroke:#ff7f0e;" x="134.21206" xlink:href="#md7711d755d" y="199.440891"/>
     <use style="fill:#ff7f0e;stroke:#ff7f0e;" x="126.381424" xlink:href="#md7711d755d" y="189.945242"/>
     <use style="fill:#ff7f0e;stroke:#ff7f0e;" x="133.306119" xlink:href="#md7711d755d" y="197.039815"/>
     <use style="fill:#ff7f0e;stroke:#ff7f0e;" x="130.214625" xlink:href="#md7711d755d" y="193.841999"/>
     <use style="fill:#ff7f0e;stroke:#ff7f0e;" x="133.208427" xlink:href="#md7711d755d" y="184.057587"/>
     <use style="fill:#ff7f0e;stroke:#ff7f0e;" x="139.4344" xlink:href="#md7711d755d" y="189.894377"/>
     <use style="fill:#ff7f0e;stroke:#ff7f0e;" x="130.235891" xlink:href="#md7711d755d" y="180.739468"/>
     <use style="fill:#ff7f0e;stroke:#ff7f0e;" x="151.158943" xlink:href="#md7711d755d" y="190.201229"/>
     <use style="fill:#ff7f0e;stroke:#ff7f0e;" x="128.659028" xlink:href="#md7711d755d" y="189.978368"/>
     <use style="fill:#ff7f0e;stroke:#ff7f0e;" x="124.076798" xlink:href="#md7711d755d" y="217.736952"/>
     <use style="fill:#ff7f0e;stroke:#ff7f0e;" x="123.538527" xlink:href="#md7711d755d" y="196.410775"/>
     <use style="fill:#ff7f0e;stroke:#ff7f0e;" x="117.417682" xlink:href="#md7711d755d" y="187.724864"/>
     <use style="fill:#ff7f0e;stroke:#ff7f0e;" x="133.221124" xlink:href="#md7711d755d" y="201.031961"/>
     <use style="fill:#ff7f0e;stroke:#ff7f0e;" x="134.068683" xlink:href="#md7711d755d" y="187.784125"/>
     <use style="fill:#ff7f0e;stroke:#ff7f0e;" x="141.698883" xlink:href="#md7711d755d" y="182.008654"/>
     <use style="fill:#ff7f0e;stroke:#ff7f0e;" x="119.968644" xlink:href="#md7711d755d" y="178.129978"/>
     <use style="fill:#ff7f0e;stroke:#ff7f0e;" x="134.626854" xlink:href="#md7711d755d" y="196.983879"/>
     <use style="fill:#ff7f0e;stroke:#ff7f0e;" x="143.051774" xlink:href="#md7711d755d" y="186.940952"/>
     <use style="fill:#ff7f0e;stroke:#ff7f0e;" x="121.194897" xlink:href="#md7711d755d" y="202.585289"/>
     <use style="fill:#ff7f0e;stroke:#ff7f0e;" x="105.94878" xlink:href="#md7711d755d" y="180.944325"/>
     <use style="fill:#ff7f0e;stroke:#ff7f0e;" x="125.195688" xlink:href="#md7711d755d" y="198.863434"/>
     <use style="fill:#ff7f0e;stroke:#ff7f0e;" x="132.84962" xlink:href="#md7711d755d" y="204.935328"/>
     <use style="fill:#ff7f0e;stroke:#ff7f0e;" x="138.587094" xlink:href="#md7711d755d" y="196.586704"/>
     <use style="fill:#ff7f0e;stroke:#ff7f0e;" x="121.048989" xlink:href="#md7711d755d" y="185.361168"/>
     <use style="fill:#ff7f0e;stroke:#ff7f0e;" x="137.713862" xlink:href="#md7711d755d" y="182.719772"/>
     <use style="fill:#ff7f0e;stroke:#ff7f0e;" x="161.09571" xlink:href="#md7711d755d" y="185.455499"/>
     <use style="fill:#ff7f0e;stroke:#ff7f0e;" x="148.726477" xlink:href="#md7711d755d" y="195.40457"/>
     <use style="fill:#ff7f0e;stroke:#ff7f0e;" x="123.39938" xlink:href="#md7711d755d" y="192.208297"/>
     <use style="fill:#ff7f0e;stroke:#ff7f0e;" x="138.342385" xlink:href="#md7711d755d" y="180.818508"/>
     <use style="fill:#ff7f0e;stroke:#ff7f0e;" x="116.664809" xlink:href="#md7711d755d" y="181.597318"/>
     <use style="fill:#ff7f0e;stroke:#ff7f0e;" x="120.007238" xlink:href="#md7711d755d" y="187.507875"/>
     <use style="fill:#ff7f0e;stroke:#ff7f0e;" x="138.750138" xlink:href="#md7711d755d" y="185.689561"/>
     <use style="fill:#ff7f0e;stroke:#ff7f0e;" x="137.707297" xlink:href="#md7711d755d" y="192.074993"/>
     <use style="fill:#ff7f0e;stroke:#ff7f0e;" x="151.3429" xlink:href="#md7711d755d" y="195.024404"/>
     <use style="fill:#ff7f0e;stroke:#ff7f0e;" x="128.874262" xlink:href="#md7711d755d" y="193.870081"/>
     <use style="fill:#ff7f0e;stroke:#ff7f0e;" x="124.784449" xlink:href="#md7711d755d" y="184.375174"/>
     <use style="fill:#ff7f0e;stroke:#ff7f0e;" x="129.621823" xlink:href="#md7711d755d" y="197.522038"/>
     <use style="fill:#ff7f0e;stroke:#ff7f0e;" x="126.437271" xlink:href="#md7711d755d" y="175.550538"/>
     <use style="fill:#ff7f0e;stroke:#ff7f0e;" x="160.982535" xlink:href="#md7711d755d" y="169.967025"/>
     <use style="fill:#ff7f0e;stroke:#ff7f0e;" x="115.232548" xlink:href="#md7711d755d" y="193.03063"/>
     <use style="fill:#ff7f0e;stroke:#ff7f0e;" x="137.840366" xlink:href="#md7711d755d" y="183.901989"/>
     <use style="fill:#ff7f0e;stroke:#ff7f0e;" x="136.059949" xlink:href="#md7711d755d" y="193.94084"/>
     <use style="fill:#ff7f0e;stroke:#ff7f0e;" x="151.316143" xlink:href="#md7711d755d" y="183.786486"/>
     <use style="fill:#ff7f0e;stroke:#ff7f0e;" x="141.873465" xlink:href="#md7711d755d" y="184.070114"/>
     <use style="fill:#ff7f0e;stroke:#ff7f0e;" x="106.809631" xlink:href="#md7711d755d" y="188.314527"/>
     <use style="fill:#ff7f0e;stroke:#ff7f0e;" x="129.927246" xlink:href="#md7711d755d" y="192.59523"/>
     <use style="fill:#ff7f0e;stroke:#ff7f0e;" x="151.832064" xlink:href="#md7711d755d" y="183.324526"/>
     <use style="fill:#ff7f0e;stroke:#ff7f0e;" x="122.386183" xlink:href="#md7711d755d" y="196.989597"/>
     <use style="fill:#ff7f0e;stroke:#ff7f0e;" x="133.901057" xlink:href="#md7711d755d" y="192.431559"/>
     <use style="fill:#ff7f0e;stroke:#ff7f0e;" x="115.888302" xlink:href="#md7711d755d" y="183.662738"/>
     <use style="fill:#ff7f0e;stroke:#ff7f0e;" x="115.012326" xlink:href="#md7711d755d" y="195.99198"/>
     <use style="fill:#ff7f0e;stroke:#ff7f0e;" x="142.382409" xlink:href="#md7711d755d" y="199.815563"/>
     <use style="fill:#ff7f0e;stroke:#ff7f0e;" x="119.123673" xlink:href="#md7711d755d" y="203.442045"/>
     <use style="fill:#ff7f0e;stroke:#ff7f0e;" x="131.609337" xlink:href="#md7711d755d" y="192.225218"/>
     <use style="fill:#ff7f0e;stroke:#ff7f0e;" x="137.715728" xlink:href="#md7711d755d" y="196.317225"/>
     <use style="fill:#ff7f0e;stroke:#ff7f0e;" x="136.473347" xlink:href="#md7711d755d" y="204.750239"/>
     <use style="fill:#ff7f0e;stroke:#ff7f0e;" x="155.664394" xlink:href="#md7711d755d" y="199.928201"/>
     <use style="fill:#ff7f0e;stroke:#ff7f0e;" x="141.207398" xlink:href="#md7711d755d" y="196.927534"/>
    </g>
   </g>
   <g id="matplotlib.axis_1">
    <g id="xtick_1">
     <g id="line2d_1">
      <defs>
       <path d="M 0 0 
L 0 3.5 
" id="m581a1d5141" style="stroke:#000000;stroke-width:0.8;"/>
      </defs>
      <g>
       <use style="stroke:#000000;stroke-width:0.8;" x="52.94" xlink:href="#m581a1d5141" y="303.64"/>
      </g>
     </g>
     <g id="text_1">
      <!-- −5 -->
      <defs>
       <path d="M 10.59375 35.5 
L 73.1875 35.5 
L 73.1875 27.203125 
L 10.59375 27.203125 
z
" id="DejaVuSans-8722"/>
       <path d="M 10.796875 72.90625 
L 49.515625 72.90625 
L 49.515625 64.59375 
L 19.828125 64.59375 
L 19.828125 46.734375 
Q 21.96875 47.46875 24.109375 47.828125 
Q 26.265625 48.1875 28.421875 48.1875 
Q 40.625 48.1875 47.75 41.5 
Q 54.890625 34.8125 54.890625 23.390625 
Q 54.890625 11.625 47.5625 5.09375 
Q 40.234375 -1.421875 26.90625 -1.421875 
Q 22.3125 -1.421875 17.546875 -0.640625 
Q 12.796875 0.140625 7.71875 1.703125 
L 7.71875 11.625 
Q 12.109375 9.234375 16.796875 8.0625 
Q 21.484375 6.890625 26.703125 6.890625 
Q 35.15625 6.890625 40.078125 11.328125 
Q 45.015625 15.765625 45.015625 23.390625 
Q 45.015625 31 40.078125 35.4375 
Q 35.15625 39.890625 26.703125 39.890625 
Q 22.75 39.890625 18.8125 39.015625 
Q 14.890625 38.140625 10.796875 36.28125 
z
" id="DejaVuSans-53"/>
      </defs>
      <g transform="translate(45.568906 318.238437)scale(0.1 -0.1)">
       <use xlink:href="#DejaVuSans-8722"/>
       <use x="83.789062" xlink:href="#DejaVuSans-53"/>
      </g>
     </g>
    </g>
    <g id="xtick_2">
     <g id="line2d_2">
      <g>
       <use style="stroke:#000000;stroke-width:0.8;" x="131.092" xlink:href="#m581a1d5141" y="303.64"/>
      </g>
     </g>
     <g id="text_2">
      <!-- 0 -->
      <defs>
       <path d="M 31.78125 66.40625 
Q 24.171875 66.40625 20.328125 58.90625 
Q 16.5 51.421875 16.5 36.375 
Q 16.5 21.390625 20.328125 13.890625 
Q 24.171875 6.390625 31.78125 6.390625 
Q 39.453125 6.390625 43.28125 13.890625 
Q 47.125 21.390625 47.125 36.375 
Q 47.125 51.421875 43.28125 58.90625 
Q 39.453125 66.40625 31.78125 66.40625 
z
M 31.78125 74.21875 
Q 44.046875 74.21875 50.515625 64.515625 
Q 56.984375 54.828125 56.984375 36.375 
Q 56.984375 17.96875 50.515625 8.265625 
Q 44.046875 -1.421875 31.78125 -1.421875 
Q 19.53125 -1.421875 13.0625 8.265625 
Q 6.59375 17.96875 6.59375 36.375 
Q 6.59375 54.828125 13.0625 64.515625 
Q 19.53125 74.21875 31.78125 74.21875 
z
" id="DejaVuSans-48"/>
      </defs>
      <g transform="translate(127.91075 318.238437)scale(0.1 -0.1)">
       <use xlink:href="#DejaVuSans-48"/>
      </g>
     </g>
    </g>
    <g id="xtick_3">
     <g id="line2d_3">
      <g>
       <use style="stroke:#000000;stroke-width:0.8;" x="209.244" xlink:href="#m581a1d5141" y="303.64"/>
      </g>
     </g>
     <g id="text_3">
      <!-- 5 -->
      <g transform="translate(206.06275 318.238437)scale(0.1 -0.1)">
       <use xlink:href="#DejaVuSans-53"/>
      </g>
     </g>
    </g>
    <g id="xtick_4">
     <g id="line2d_4">
      <g>
       <use style="stroke:#000000;stroke-width:0.8;" x="287.396" xlink:href="#m581a1d5141" y="303.64"/>
      </g>
     </g>
     <g id="text_4">
      <!-- 10 -->
      <defs>
       <path d="M 12.40625 8.296875 
L 28.515625 8.296875 
L 28.515625 63.921875 
L 10.984375 60.40625 
L 10.984375 69.390625 
L 28.421875 72.90625 
L 38.28125 72.90625 
L 38.28125 8.296875 
L 54.390625 8.296875 
L 54.390625 0 
L 12.40625 0 
z
" id="DejaVuSans-49"/>
      </defs>
      <g transform="translate(281.0335 318.238437)scale(0.1 -0.1)">
       <use xlink:href="#DejaVuSans-49"/>
       <use x="63.623047" xlink:href="#DejaVuSans-48"/>
      </g>
     </g>
    </g>
    <g id="xtick_5">
     <g id="line2d_5">
      <g>
       <use style="stroke:#000000;stroke-width:0.8;" x="365.548" xlink:href="#m581a1d5141" y="303.64"/>
      </g>
     </g>
     <g id="text_5">
      <!-- 15 -->
      <g transform="translate(359.1855 318.238437)scale(0.1 -0.1)">
       <use xlink:href="#DejaVuSans-49"/>
       <use x="63.623047" xlink:href="#DejaVuSans-53"/>
      </g>
     </g>
    </g>
    <g id="xtick_6">
     <g id="line2d_6">
      <g>
       <use style="stroke:#000000;stroke-width:0.8;" x="443.7" xlink:href="#m581a1d5141" y="303.64"/>
      </g>
     </g>
     <g id="text_6">
      <!-- 20 -->
      <defs>
       <path d="M 19.1875 8.296875 
L 53.609375 8.296875 
L 53.609375 0 
L 7.328125 0 
L 7.328125 8.296875 
Q 12.9375 14.109375 22.625 23.890625 
Q 32.328125 33.6875 34.8125 36.53125 
Q 39.546875 41.84375 41.421875 45.53125 
Q 43.3125 49.21875 43.3125 52.78125 
Q 43.3125 58.59375 39.234375 62.25 
Q 35.15625 65.921875 28.609375 65.921875 
Q 23.96875 65.921875 18.8125 64.3125 
Q 13.671875 62.703125 7.8125 59.421875 
L 7.8125 69.390625 
Q 13.765625 71.78125 18.9375 73 
Q 24.125 74.21875 28.421875 74.21875 
Q 39.75 74.21875 46.484375 68.546875 
Q 53.21875 62.890625 53.21875 53.421875 
Q 53.21875 48.921875 51.53125 44.890625 
Q 49.859375 40.875 45.40625 35.40625 
Q 44.1875 33.984375 37.640625 27.21875 
Q 31.109375 20.453125 19.1875 8.296875 
z
" id="DejaVuSans-50"/>
      </defs>
      <g transform="translate(437.3375 318.238437)scale(0.1 -0.1)">
       <use xlink:href="#DejaVuSans-50"/>
       <use x="63.623047" xlink:href="#DejaVuSans-48"/>
      </g>
     </g>
    </g>
    <g id="text_7">
     <!-- x (m) -->
     <defs>
      <path d="M 54.890625 54.6875 
L 35.109375 28.078125 
L 55.90625 0 
L 45.3125 0 
L 29.390625 21.484375 
L 13.484375 0 
L 2.875 0 
L 24.125 28.609375 
L 4.6875 54.6875 
L 15.28125 54.6875 
L 29.78125 35.203125 
L 44.28125 54.6875 
z
" id="DejaVuSans-120"/>
      <path id="DejaVuSans-32"/>
      <path d="M 31 75.875 
Q 24.46875 64.65625 21.28125 53.65625 
Q 18.109375 42.671875 18.109375 31.390625 
Q 18.109375 20.125 21.3125 9.0625 
Q 24.515625 -2 31 -13.1875 
L 23.1875 -13.1875 
Q 15.875 -1.703125 12.234375 9.375 
Q 8.59375 20.453125 8.59375 31.390625 
Q 8.59375 42.28125 12.203125 53.3125 
Q 15.828125 64.359375 23.1875 75.875 
z
" id="DejaVuSans-40"/>
      <path d="M 52 44.1875 
Q 55.375 50.25 60.0625 53.125 
Q 64.75 56 71.09375 56 
Q 79.640625 56 84.28125 50.015625 
Q 88.921875 44.046875 88.921875 33.015625 
L 88.921875 0 
L 79.890625 0 
L 79.890625 32.71875 
Q 79.890625 40.578125 77.09375 44.375 
Q 74.3125 48.1875 68.609375 48.1875 
Q 61.625 48.1875 57.5625 43.546875 
Q 53.515625 38.921875 53.515625 30.90625 
L 53.515625 0 
L 44.484375 0 
L 44.484375 32.71875 
Q 44.484375 40.625 41.703125 44.40625 
Q 38.921875 48.1875 33.109375 48.1875 
Q 26.21875 48.1875 22.15625 43.53125 
Q 18.109375 38.875 18.109375 30.90625 
L 18.109375 0 
L 9.078125 0 
L 9.078125 54.6875 
L 18.109375 54.6875 
L 18.109375 46.1875 
Q 21.1875 51.21875 25.484375 53.609375 
Q 29.78125 56 35.6875 56 
Q 41.65625 56 45.828125 52.96875 
Q 50 49.953125 52 44.1875 
z
" id="DejaVuSans-109"/>
      <path d="M 8.015625 75.875 
L 15.828125 75.875 
Q 23.140625 64.359375 26.78125 53.3125 
Q 30.421875 42.28125 30.421875 31.390625 
Q 30.421875 20.453125 26.78125 9.375 
Q 23.140625 -1.703125 15.828125 -13.1875 
L 8.015625 -13.1875 
Q 14.5 -2 17.703125 9.0625 
Q 20.90625 20.125 20.90625 31.390625 
Q 20.90625 42.671875 17.703125 53.65625 
Q 14.5 64.65625 8.015625 75.875 
z
" id="DejaVuSans-41"/>
     </defs>
     <g transform="translate(234.999687 331.916562)scale(0.1 -0.1)">
      <use xlink:href="#DejaVuSans-120"/>
      <use x="59.179688" xlink:href="#DejaVuSans-32"/>
      <use x="90.966797" xlink:href="#DejaVuSans-40"/>
      <use x="129.980469" xlink:href="#DejaVuSans-109"/>
      <use x="227.392578" xlink:href="#DejaVuSans-41"/>
     </g>
    </g>
   </g>
   <g id="matplotlib.axis_2">
    <g id="ytick_1">
     <g id="line2d_7">
      <defs>
       <path d="M 0 0 
L -3.5 0 
" id="mfb31ccec3f" style="stroke:#000000;stroke-width:0.8;"/>
      </defs>
      <g>
       <use style="stroke:#000000;stroke-width:0.8;" x="52.94" xlink:href="#mfb31ccec3f" y="303.64"/>
      </g>
     </g>
     <g id="text_8">
      <!-- −10 -->
      <g transform="translate(24.835313 307.439219)scale(0.1 -0.1)">
       <use xlink:href="#DejaVuSans-8722"/>
       <use x="83.789062" xlink:href="#DejaVuSans-49"/>
       <use x="147.412109" xlink:href="#DejaVuSans-48"/>
      </g>
     </g>
    </g>
    <g id="ytick_2">
     <g id="line2d_8">
      <g>
       <use style="stroke:#000000;stroke-width:0.8;" x="52.94" xlink:href="#mfb31ccec3f" y="248"/>
      </g>
     </g>
     <g id="text_9">
      <!-- −5 -->
      <g transform="translate(31.197813 251.799219)scale(0.1 -0.1)">
       <use xlink:href="#DejaVuSans-8722"/>
       <use x="83.789062" xlink:href="#DejaVuSans-53"/>
      </g>
     </g>
    </g>
    <g id="ytick_3">
     <g id="line2d_9">
      <g>
       <use style="stroke:#000000;stroke-width:0.8;" x="52.94" xlink:href="#mfb31ccec3f" y="192.36"/>
      </g>
     </g>
     <g id="text_10">
      <!-- 0 -->
      <g transform="translate(39.5775 196.159219)scale(0.1 -0.1)">
       <use xlink:href="#DejaVuSans-48"/>
      </g>
     </g>
    </g>
    <g id="ytick_4">
     <g id="line2d_10">
      <g>
       <use style="stroke:#000000;stroke-width:0.8;" x="52.94" xlink:href="#mfb31ccec3f" y="136.72"/>
      </g>
     </g>
     <g id="text_11">
      <!-- 5 -->
      <g transform="translate(39.5775 140.519219)scale(0.1 -0.1)">
       <use xlink:href="#DejaVuSans-53"/>
      </g>
     </g>
    </g>
    <g id="ytick_5">
     <g id="line2d_11">
      <g>
       <use style="stroke:#000000;stroke-width:0.8;" x="52.94" xlink:href="#mfb31ccec3f" y="81.08"/>
      </g>
     </g>
     <g id="text_12">
      <!-- 10 -->
      <g transform="translate(33.215 84.879219)scale(0.1 -0.1)">
       <use xlink:href="#DejaVuSans-49"/>
       <use x="63.623047" xlink:href="#DejaVuSans-48"/>
      </g>
     </g>
    </g>
    <g id="ytick_6">
     <g id="line2d_12">
      <g>
       <use style="stroke:#000000;stroke-width:0.8;" x="52.94" xlink:href="#mfb31ccec3f" y="25.44"/>
      </g>
     </g>
     <g id="text_13">
      <!-- 15 -->
      <g transform="translate(33.215 29.239219)scale(0.1 -0.1)">
       <use xlink:href="#DejaVuSans-49"/>
       <use x="63.623047" xlink:href="#DejaVuSans-53"/>
      </g>
     </g>
    </g>
    <g id="text_14">
     <!-- y (m) -->
     <defs>
      <path d="M 32.171875 -5.078125 
Q 28.375 -14.84375 24.75 -17.8125 
Q 21.140625 -20.796875 15.09375 -20.796875 
L 7.90625 -20.796875 
L 7.90625 -13.28125 
L 13.1875 -13.28125 
Q 16.890625 -13.28125 18.9375 -11.515625 
Q 21 -9.765625 23.484375 -3.21875 
L 25.09375 0.875 
L 2.984375 54.6875 
L 12.5 54.6875 
L 29.59375 11.921875 
L 46.6875 54.6875 
L 56.203125 54.6875 
z
" id="DejaVuSans-121"/>
     </defs>
     <g transform="translate(18.755625 177.860312)rotate(-90)scale(0.1 -0.1)">
      <use xlink:href="#DejaVuSans-121"/>
      <use x="59.179688" xlink:href="#DejaVuSans-32"/>
      <use x="90.966797" xlink:href="#DejaVuSans-40"/>
      <use x="129.980469" xlink:href="#DejaVuSans-109"/>
      <use x="227.392578" xlink:href="#DejaVuSans-41"/>
     </g>
    </g>
   </g>
   <g id="patch_3">
    <path d="M 52.94 303.64 
L 52.94 25.44 
" style="fill:none;stroke:#000000;stroke-linecap:square;stroke-linejoin:miter;stroke-width:0.8;"/>
   </g>
   <g id="patch_4">
    <path d="M 443.7 303.64 
L 443.7 25.44 
" style="fill:none;stroke:#000000;stroke-linecap:square;stroke-linejoin:miter;stroke-width:0.8;"/>
   </g>
   <g id="patch_5">
    <path d="M 52.94 303.64 
L 443.7 303.64 
" style="fill:none;stroke:#000000;stroke-linecap:square;stroke-linejoin:miter;stroke-width:0.8;"/>
   </g>
   <g id="patch_6">
    <path d="M 52.94 25.44 
L 443.7 25.44 
" style="fill:none;stroke:#000000;stroke-linecap:square;stroke-linejoin:miter;stroke-width:0.8;"/>
   </g>
   <g id="text_15">
    <!-- Step 0 posterior samples -->
    <defs>
     <path d="M 53.515625 70.515625 
L 53.515625 60.890625 
Q 47.90625 63.578125 42.921875 64.890625 
Q 37.9375 66.21875 33.296875 66.21875 
Q 25.25 66.21875 20.875 63.09375 
Q 16.5 59.96875 16.5 54.203125 
Q 16.5 49.359375 19.40625 46.890625 
Q 22.3125 44.4375 30.421875 42.921875 
L 36.375 41.703125 
Q 47.40625 39.59375 52.65625 34.296875 
Q 57.90625 29 57.90625 20.125 
Q 57.90625 9.515625 50.796875 4.046875 
Q 43.703125 -1.421875 29.984375 -1.421875 
Q 24.8125 -1.421875 18.96875 -0.25 
Q 13.140625 0.921875 6.890625 3.21875 
L 6.890625 13.375 
Q 12.890625 10.015625 18.65625 8.296875 
Q 24.421875 6.59375 29.984375 6.59375 
Q 38.421875 6.59375 43.015625 9.90625 
Q 47.609375 13.234375 47.609375 19.390625 
Q 47.609375 24.75 44.3125 27.78125 
Q 41.015625 30.8125 33.5 32.328125 
L 27.484375 33.5 
Q 16.453125 35.6875 11.515625 40.375 
Q 6.59375 45.0625 6.59375 53.421875 
Q 6.59375 63.09375 13.40625 68.65625 
Q 20.21875 74.21875 32.171875 74.21875 
Q 37.3125 74.21875 42.625 73.28125 
Q 47.953125 72.359375 53.515625 70.515625 
z
" id="DejaVuSans-83"/>
     <path d="M 18.3125 70.21875 
L 18.3125 54.6875 
L 36.8125 54.6875 
L 36.8125 47.703125 
L 18.3125 47.703125 
L 18.3125 18.015625 
Q 18.3125 11.328125 20.140625 9.421875 
Q 21.96875 7.515625 27.59375 7.515625 
L 36.8125 7.515625 
L 36.8125 0 
L 27.59375 0 
Q 17.1875 0 13.234375 3.875 
Q 9.28125 7.765625 9.28125 18.015625 
L 9.28125 47.703125 
L 2.6875 47.703125 
L 2.6875 54.6875 
L 9.28125 54.6875 
L 9.28125 70.21875 
z
" id="DejaVuSans-116"/>
     <path d="M 56.203125 29.59375 
L 56.203125 25.203125 
L 14.890625 25.203125 
Q 15.484375 15.921875 20.484375 11.0625 
Q 25.484375 6.203125 34.421875 6.203125 
Q 39.59375 6.203125 44.453125 7.46875 
Q 49.3125 8.734375 54.109375 11.28125 
L 54.109375 2.78125 
Q 49.265625 0.734375 44.1875 -0.34375 
Q 39.109375 -1.421875 33.890625 -1.421875 
Q 20.796875 -1.421875 13.15625 6.1875 
Q 5.515625 13.8125 5.515625 26.8125 
Q 5.515625 40.234375 12.765625 48.109375 
Q 20.015625 56 32.328125 56 
Q 43.359375 56 49.78125 48.890625 
Q 56.203125 41.796875 56.203125 29.59375 
z
M 47.21875 32.234375 
Q 47.125 39.59375 43.09375 43.984375 
Q 39.0625 48.390625 32.421875 48.390625 
Q 24.90625 48.390625 20.390625 44.140625 
Q 15.875 39.890625 15.1875 32.171875 
z
" id="DejaVuSans-101"/>
     <path d="M 18.109375 8.203125 
L 18.109375 -20.796875 
L 9.078125 -20.796875 
L 9.078125 54.6875 
L 18.109375 54.6875 
L 18.109375 46.390625 
Q 20.953125 51.265625 25.265625 53.625 
Q 29.59375 56 35.59375 56 
Q 45.5625 56 51.78125 48.09375 
Q 58.015625 40.1875 58.015625 27.296875 
Q 58.015625 14.40625 51.78125 6.484375 
Q 45.5625 -1.421875 35.59375 -1.421875 
Q 29.59375 -1.421875 25.265625 0.953125 
Q 20.953125 3.328125 18.109375 8.203125 
z
M 48.6875 27.296875 
Q 48.6875 37.203125 44.609375 42.84375 
Q 40.53125 48.484375 33.40625 48.484375 
Q 26.265625 48.484375 22.1875 42.84375 
Q 18.109375 37.203125 18.109375 27.296875 
Q 18.109375 17.390625 22.1875 11.75 
Q 26.265625 6.109375 33.40625 6.109375 
Q 40.53125 6.109375 44.609375 11.75 
Q 48.6875 17.390625 48.6875 27.296875 
z
" id="DejaVuSans-112"/>
     <path d="M 30.609375 48.390625 
Q 23.390625 48.390625 19.1875 42.75 
Q 14.984375 37.109375 14.984375 27.296875 
Q 14.984375 17.484375 19.15625 11.84375 
Q 23.34375 6.203125 30.609375 6.203125 
Q 37.796875 6.203125 41.984375 11.859375 
Q 46.1875 17.53125 46.1875 27.296875 
Q 46.1875 37.015625 41.984375 42.703125 
Q 37.796875 48.390625 30.609375 48.390625 
z
M 30.609375 56 
Q 42.328125 56 49.015625 48.375 
Q 55.71875 40.765625 55.71875 27.296875 
Q 55.71875 13.875 49.015625 6.21875 
Q 42.328125 -1.421875 30.609375 -1.421875 
Q 18.84375 -1.421875 12.171875 6.21875 
Q 5.515625 13.875 5.515625 27.296875 
Q 5.515625 40.765625 12.171875 48.375 
Q 18.84375 56 30.609375 56 
z
" id="DejaVuSans-111"/>
     <path d="M 44.28125 53.078125 
L 44.28125 44.578125 
Q 40.484375 46.53125 36.375 47.5 
Q 32.28125 48.484375 27.875 48.484375 
Q 21.1875 48.484375 17.84375 46.4375 
Q 14.5 44.390625 14.5 40.28125 
Q 14.5 37.15625 16.890625 35.375 
Q 19.28125 33.59375 26.515625 31.984375 
L 29.59375 31.296875 
Q 39.15625 29.25 43.1875 25.515625 
Q 47.21875 21.78125 47.21875 15.09375 
Q 47.21875 7.46875 41.1875 3.015625 
Q 35.15625 -1.421875 24.609375 -1.421875 
Q 20.21875 -1.421875 15.453125 -0.5625 
Q 10.6875 0.296875 5.421875 2 
L 5.421875 11.28125 
Q 10.40625 8.6875 15.234375 7.390625 
Q 20.0625 6.109375 24.8125 6.109375 
Q 31.15625 6.109375 34.5625 8.28125 
Q 37.984375 10.453125 37.984375 14.40625 
Q 37.984375 18.0625 35.515625 20.015625 
Q 33.0625 21.96875 24.703125 23.78125 
L 21.578125 24.515625 
Q 13.234375 26.265625 9.515625 29.90625 
Q 5.8125 33.546875 5.8125 39.890625 
Q 5.8125 47.609375 11.28125 51.796875 
Q 16.75 56 26.8125 56 
Q 31.78125 56 36.171875 55.265625 
Q 40.578125 54.546875 44.28125 53.078125 
z
" id="DejaVuSans-115"/>
     <path d="M 41.109375 46.296875 
Q 39.59375 47.171875 37.8125 47.578125 
Q 36.03125 48 33.890625 48 
Q 26.265625 48 22.1875 43.046875 
Q 18.109375 38.09375 18.109375 28.8125 
L 18.109375 0 
L 9.078125 0 
L 9.078125 54.6875 
L 18.109375 54.6875 
L 18.109375 46.1875 
Q 20.953125 51.171875 25.484375 53.578125 
Q 30.03125 56 36.53125 56 
Q 37.453125 56 38.578125 55.875 
Q 39.703125 55.765625 41.0625 55.515625 
z
" id="DejaVuSans-114"/>
     <path d="M 9.421875 54.6875 
L 18.40625 54.6875 
L 18.40625 0 
L 9.421875 0 
z
M 9.421875 75.984375 
L 18.40625 75.984375 
L 18.40625 64.59375 
L 9.421875 64.59375 
z
" id="DejaVuSans-105"/>
     <path d="M 34.28125 27.484375 
Q 23.390625 27.484375 19.1875 25 
Q 14.984375 22.515625 14.984375 16.5 
Q 14.984375 11.71875 18.140625 8.90625 
Q 21.296875 6.109375 26.703125 6.109375 
Q 34.1875 6.109375 38.703125 11.40625 
Q 43.21875 16.703125 43.21875 25.484375 
L 43.21875 27.484375 
z
M 52.203125 31.203125 
L 52.203125 0 
L 43.21875 0 
L 43.21875 8.296875 
Q 40.140625 3.328125 35.546875 0.953125 
Q 30.953125 -1.421875 24.3125 -1.421875 
Q 15.921875 -1.421875 10.953125 3.296875 
Q 6 8.015625 6 15.921875 
Q 6 25.140625 12.171875 29.828125 
Q 18.359375 34.515625 30.609375 34.515625 
L 43.21875 34.515625 
L 43.21875 35.40625 
Q 43.21875 41.609375 39.140625 45 
Q 35.0625 48.390625 27.6875 48.390625 
Q 23 48.390625 18.546875 47.265625 
Q 14.109375 46.140625 10.015625 43.890625 
L 10.015625 52.203125 
Q 14.9375 54.109375 19.578125 55.046875 
Q 24.21875 56 28.609375 56 
Q 40.484375 56 46.34375 49.84375 
Q 52.203125 43.703125 52.203125 31.203125 
z
" id="DejaVuSans-97"/>
     <path d="M 9.421875 75.984375 
L 18.40625 75.984375 
L 18.40625 0 
L 9.421875 0 
z
" id="DejaVuSans-108"/>
    </defs>
    <g transform="translate(173.258125 19.44)scale(0.12 -0.12)">
     <use xlink:href="#DejaVuSans-83"/>
     <use x="63.476562" xlink:href="#DejaVuSans-116"/>
     <use x="102.685547" xlink:href="#DejaVuSans-101"/>
     <use x="164.208984" xlink:href="#DejaVuSans-112"/>
     <use x="227.685547" xlink:href="#DejaVuSans-32"/>
     <use x="259.472656" xlink:href="#DejaVuSans-48"/>
     <use x="323.095703" xlink:href="#DejaVuSans-32"/>
     <use x="354.882812" xlink:href="#DejaVuSans-112"/>
     <use x="418.359375" xlink:href="#DejaVuSans-111"/>
     <use x="479.541016" xlink:href="#DejaVuSans-115"/>
     <use x="531.640625" xlink:href="#DejaVuSans-116"/>
     <use x="570.849609" xlink:href="#DejaVuSans-101"/>
     <use x="632.373047" xlink:href="#DejaVuSans-114"/>
     <use x="673.486328" xlink:href="#DejaVuSans-105"/>
     <use x="701.269531" xlink:href="#DejaVuSans-111"/>
     <use x="762.451172" xlink:href="#DejaVuSans-114"/>
     <use x="803.564453" xlink:href="#DejaVuSans-32"/>
     <use x="835.351562" xlink:href="#DejaVuSans-115"/>
     <use x="887.451172" xlink:href="#DejaVuSans-97"/>
     <use x="948.730469" xlink:href="#DejaVuSans-109"/>
     <use x="1046.142578" xlink:href="#DejaVuSans-112"/>
     <use x="1109.619141" xlink:href="#DejaVuSans-108"/>
     <use x="1137.402344" xlink:href="#DejaVuSans-101"/>
     <use x="1198.925781" xlink:href="#DejaVuSans-115"/>
    </g>
   </g>
  </g>
 </g>
 <defs>
  <clipPath id="p4d12efdb9d">
   <rect height="278.2" width="390.76" x="52.94" y="25.44"/>
  </clipPath>
 </defs>
</svg>
